<mxfile host="app.diagrams.net" modified="2024-07-10T10:50:19.279Z" agent="Mozilla/5.0 (Windows NT 10.0; Win64; x64) AppleWebKit/537.36 (KHTML, like Gecko) Chrome/125.0.0.0 Safari/537.36" version="24.6.4" etag="lbBtlDefzNw3T2dBzAIf" type="github">
  <diagram name="PÃ¡gina-1" id="JtMFmtx-uLdnGz5LhlF_">
    <mxGraphModel>
      <root>
        <mxCell id="0" />
        <mxCell id="1" parent="0" />
      </root>
    </mxGraphModel>
  </diagram>
</mxfile>
